<?xml version="1.0" encoding="UTF-8"?>
<svg width="154px" height="32px" viewBox="0 0 154 32" version="1.1" xmlns="http://www.w3.org/2000/svg" xmlns:xlink="http://www.w3.org/1999/xlink">
    <!-- Generator: sketchtool 51.1 (57501) - http://www.bohemiancoding.com/sketch -->
    <title>DFD8FA61-E72F-4B75-8BB4-31DE0AAEED5B</title>
    <desc>Created with sketchtool.</desc>
    <defs>
        <linearGradient x1="60%" y1="-40%" x2="40%" y2="140%" id="linearGradient-1">
            <stop stop-color="#FFC369" offset="0%"></stop>
            <stop stop-color="#FF7A56" offset="100%"></stop>
        </linearGradient>
    </defs>
    <g id="Desktop" stroke="none" stroke-width="1" fill="none" fill-rule="evenodd">
        <g id="Homepage" transform="translate(-374.000000, -30.000000)">
            <g id="Header">
                <g id="Menu">
                    <g id="Logo" transform="translate(374.000000, 30.000000)">
                        <text id="web-development-serv" font-family="DINPro-Bold, DIN Pro" font-size="10" font-weight="bold" letter-spacing="-0.5" fill="#B1B4BD">
                            <tspan x="45" y="30">web development service</tspan>
                            <tspan x="148.58" y="30">s</tspan>
                        </text>
                        <path d="M127,0 L134,0 C136.761424,0 139,2.23857625 139,5 C139,6.96854946 137.862377,8.67139278 136.208698,9.48696225 L139,16 L136,16 L133.428571,10 L130,10 L130,16 L127,16 L127,0 Z M86,3 L86,16 L83,16 L83,3 L78,3 L78,0 L91,0 L91,3 L86,3 Z M130,3 L130,7 L134,7 C135.104569,7 136,6.1045695 136,5 C136,3.8954305 135.104569,3 134,3 L130,3 Z M57,11.413116 L57,2.27373675e-13 L60,0 L60,16 L57,16 L49,4.37248702 L49,16 L46,16 L46,0 L49,2.27373675e-13 L57,11.413116 Z M67,7 L73,7 L72,10 L67,10 L67,13 L74,13 L74,16 L64,16 L64,0 L74,0 L74,3 L67,3 L67,7 Z M146,7 L152,7 L151,10 L146,10 L146,13 L153,13 L153,16 L143,16 L143,0 L153,0 L153,3 L146,3 L146,7 Z M116,16 C111.581722,16 108,12.418278 108,8 C108,3.581722 111.581722,0 116,0 C120.418278,0 124,3.581722 124,8 C124,12.418278 120.418278,16 116,16 Z M116,13 C118.761424,13 121,10.7614237 121,8 C121,5.23857625 118.761424,3 116,3 C113.238576,3 111,5.23857625 111,8 C111,10.7614237 113.238576,13 116,13 Z M103.887275,3.99979089 C103.060159,3.37200687 102.032011,3 100.917868,3 C98.1847944,3 95.9692005,5.23857625 95.9692005,8 C95.9692005,10.7614237 98.1847944,13 100.917868,13 C102.032011,13 103.060159,12.6279931 103.887275,12.0002091 L106,14.1348489 C104.624798,15.2990645 102.852349,16 100.917868,16 C96.5449502,16 93,12.418278 93,8 C93,3.581722 96.5449502,0 100.917868,0 C102.852349,0 104.624798,0.700935526 106,1.86515106 L103.887275,3.99979089 Z" id="Netcore" fill="#FFFFFF"></path>
                        <g id="Symbol">
                            <path d="M30,3 L30,11 L27,11 L27,3 L19,3 L19,0 L27,0 C28.6568542,-3.04359188e-16 30,1.34314575 30,3 Z M0,27 L0,19 L3,19 L3,27 L11,27 L11,30 L3,30 C1.34314575,30 0,28.6568542 0,27 Z" id="Combined-Shape" fill="#FFFFFF"></path>
                            <path d="M2.84378029,7.10542736e-15 L27.1562197,25.6943039 C28.2812601,26.883289 28.2812601,28.8110148 27.1562197,30 L2.84378029,4.30569615 C1.7187399,3.11671099 1.7187399,1.18898516 2.84378029,7.10542736e-15 Z" id="Rectangle-2" fill="url(#linearGradient-1)"></path>
                        </g>
                    </g>
                </g>
            </g>
        </g>
    </g>
</svg>